<svg xmlns="http://www.w3.org/2000/svg" viewBox="0 0 860 825" width="860" height="825" role="img">
<defs><clipPath id="frame"><rect x="0" y="52" width="860" height="773"/></clipPath></defs>
<rect width="100%" height="100%" fill="#faf7f2"/>
<text x="18.0" y="26" font-size="17" font-weight="700" fill="#2f2a24" font-family="'Helvetica Neue',Helvetica,Arial,sans-serif">남부 및 도서 — 캄파니아 · 풀리아 · 시칠리아 · 사르데냐</text>
<text x="18.0" y="44" font-size="12" fill="#6b6157" font-family="'Helvetica Neue',Helvetica,Arial,sans-serif">Taurasi · Aglianico del Vulture · Primitivo · Etna · Cannonau</text>
<g clip-path="url(#frame)">
<path d="M -6.4 -113.8 L 92.8 -173.4 L 160.0 -143.6 L 195.8 -90.7 L 211.4 -31.1 L 256.9 19.9 L 306.9 49.7 L 342.7 84.4 L 368.8 112.2 L 439.0 134.4 L 474.8 158.4 L 489.7 169.0 L 528.5 185.4 L 544.9 217.1 L 592.6 244.0 L 623.9 312.3 L 612.8 377.7 L 594.1 432.6 L 616.5 449.9 L 639.6 420.1 L 663.5 399.9 L 705.3 339.3 L 704.5 311.4 L 665.0 267.1 L 679.9 214.2 L 712.7 205.6 L 739.6 221.9 L 767.9 245.0 L 795.5 271.0 L 806.7 236.3 L 773.1 202.7 L 765.7 190.2 L 715.7 170.9 L 685.1 142.1 L 642.6 120.9 L 614.2 94.9 L 633.6 69.9 L 611.3 65.1 L 571.7 71.8 L 544.9 58.4 L 487.4 14.1 L 435.2 -97.4 L 364.4 -139.8 L 347.2 -272.5 L 403.9 -283.1 L 453.9 -292.7 L 448.6 -376.4 L 350.2 -391.8 L 333.0 -431.2 L 254.7 -421.6 L 206.2 -410.1 L 180.1 -386.0 L 116.7 -374.5 L 69.7 -337.9 L 30.9 -336.0 L 12.3 -318.7 L -52.6 -312.9 L -78.7 -240.8 L -49.6 -215.8 L -25.0 -145.5 Z" fill="#ece5d8" stroke="#c4b8a3" stroke-width="1.4"/>
<path d="M 586.6 423.9 L 563.5 416.2 L 508.3 433.5 L 423.3 431.6 L 385.2 433.5 L 359.9 441.2 L 354.7 462.4 L 365.8 476.8 L 402.4 490.3 L 439.7 512.4 L 489.7 533.6 L 534.4 565.3 L 553.1 569.1 L 567.3 532.6 L 566.5 505.7 L 552.3 491.2 L 563.5 462.4 Z" fill="#ece5d8" stroke="#c4b8a3" stroke-width="1.4"/>
<path d="M 112.2 131.5 L 135.4 162.3 L 150.3 214.2 L 150.3 256.5 L 145.0 298.9 L 136.8 337.3 L 106.3 326.7 L 86.9 359.5 L 57.0 337.3 L 51.8 294.0 L 60.8 260.4 L 46.6 196.9 L 35.4 195.9 L 40.6 160.3 L 76.4 162.3 Z" fill="#ece5d8" stroke="#c4b8a3" stroke-width="1.4"/>
<path d="M 316.6 556.6 L 324.1 555.7 L 326.3 562.4 L 318.9 564.3 Z" fill="#ece5d8" stroke="#c4b8a3" stroke-width="1.4"/>
</g>
<circle cx="556.8" cy="143.0" r="10.5" fill="#8c2f39" stroke="#faf7f2" stroke-width="1.6"/>
<text x="556.8" y="147.0" font-size="12" text-anchor="middle" font-weight="700" fill="#ffffff" font-family="'Helvetica Neue',Helvetica,Arial,sans-serif">1</text>
<circle cx="523.2" cy="168.0" r="10.5" fill="#b08a2e" stroke="#faf7f2" stroke-width="1.6"/>
<text x="523.2" y="172.0" font-size="12" text-anchor="middle" font-weight="700" fill="#ffffff" font-family="'Helvetica Neue',Helvetica,Arial,sans-serif">2</text>
<circle cx="539.7" cy="155.5" r="10.5" fill="#b08a2e" stroke="#faf7f2" stroke-width="1.6"/>
<text x="539.7" y="159.5" font-size="12" text-anchor="middle" font-weight="700" fill="#ffffff" font-family="'Helvetica Neue',Helvetica,Arial,sans-serif">3</text>
<circle cx="512.1" cy="133.4" r="10.5" fill="#b08a2e" stroke="#faf7f2" stroke-width="1.6"/>
<text x="512.1" y="137.4" font-size="12" text-anchor="middle" font-weight="700" fill="#ffffff" font-family="'Helvetica Neue',Helvetica,Arial,sans-serif">4</text>
<circle cx="515.8" cy="191.1" r="10.5" fill="#b08a2e" stroke="#faf7f2" stroke-width="1.6"/>
<text x="515.8" y="195.1" font-size="12" text-anchor="middle" font-weight="700" fill="#ffffff" font-family="'Helvetica Neue',Helvetica,Arial,sans-serif">5</text>
<circle cx="591.9" cy="159.4" r="10.5" fill="#8c2f39" stroke="#faf7f2" stroke-width="1.6"/>
<text x="591.9" y="163.4" font-size="12" text-anchor="middle" font-weight="700" fill="#ffffff" font-family="'Helvetica Neue',Helvetica,Arial,sans-serif">6</text>
<circle cx="640.4" cy="149.8" r="10.5" fill="#8c2f39" stroke="#faf7f2" stroke-width="1.6"/>
<text x="640.4" y="153.8" font-size="12" text-anchor="middle" font-weight="700" fill="#ffffff" font-family="'Helvetica Neue',Helvetica,Arial,sans-serif">7</text>
<circle cx="688.8" cy="173.8" r="10.5" fill="#8c2f39" stroke="#faf7f2" stroke-width="1.6"/>
<text x="688.8" y="177.8" font-size="12" text-anchor="middle" font-weight="700" fill="#ffffff" font-family="'Helvetica Neue',Helvetica,Arial,sans-serif">8</text>
<circle cx="741.8" cy="212.3" r="10.5" fill="#8c2f39" stroke="#faf7f2" stroke-width="1.6"/>
<text x="741.8" y="216.3" font-size="12" text-anchor="middle" font-weight="700" fill="#ffffff" font-family="'Helvetica Neue',Helvetica,Arial,sans-serif">9</text>
<circle cx="767.9" cy="219.0" r="10.5" fill="#8c2f39" stroke="#faf7f2" stroke-width="1.6"/>
<text x="767.9" y="223.0" font-size="12" text-anchor="middle" font-weight="700" fill="#ffffff" font-family="'Helvetica Neue',Helvetica,Arial,sans-serif">10</text>
<circle cx="703.8" cy="310.4" r="10.5" fill="#8c2f39" stroke="#faf7f2" stroke-width="1.6"/>
<text x="703.8" y="314.4" font-size="12" text-anchor="middle" font-weight="700" fill="#ffffff" font-family="'Helvetica Neue',Helvetica,Arial,sans-serif">11</text>
<circle cx="545.6" cy="467.2" r="10.5" fill="#8c2f39" stroke="#faf7f2" stroke-width="1.6"/>
<text x="545.6" y="471.2" font-size="12" text-anchor="middle" font-weight="700" fill="#ffffff" font-family="'Helvetica Neue',Helvetica,Arial,sans-serif">12</text>
<circle cx="510.6" cy="540.3" r="10.5" fill="#8c2f39" stroke="#faf7f2" stroke-width="1.6"/>
<text x="510.6" y="544.3" font-size="12" text-anchor="middle" font-weight="700" fill="#ffffff" font-family="'Helvetica Neue',Helvetica,Arial,sans-serif">13</text>
<circle cx="354.7" cy="462.4" r="10.5" fill="#b08a2e" stroke="#faf7f2" stroke-width="1.6"/>
<text x="354.7" y="466.4" font-size="12" text-anchor="middle" font-weight="700" fill="#ffffff" font-family="'Helvetica Neue',Helvetica,Arial,sans-serif">14</text>
<circle cx="321.1" cy="559.5" r="10.5" fill="#b08a2e" stroke="#faf7f2" stroke-width="1.6"/>
<text x="321.1" y="563.5" font-size="12" text-anchor="middle" font-weight="700" fill="#ffffff" font-family="'Helvetica Neue',Helvetica,Arial,sans-serif">15</text>
<circle cx="124.2" cy="152.6" r="10.5" fill="#b08a2e" stroke="#faf7f2" stroke-width="1.6"/>
<text x="124.2" y="156.6" font-size="12" text-anchor="middle" font-weight="700" fill="#ffffff" font-family="'Helvetica Neue',Helvetica,Arial,sans-serif">16</text>
<circle cx="113.0" cy="221.9" r="10.5" fill="#8c2f39" stroke="#faf7f2" stroke-width="1.6"/>
<text x="113.0" y="225.9" font-size="12" text-anchor="middle" font-weight="700" fill="#ffffff" font-family="'Helvetica Neue',Helvetica,Arial,sans-serif">17</text>
<circle cx="64.5" cy="332.5" r="10.5" fill="#8c2f39" stroke="#faf7f2" stroke-width="1.6"/>
<text x="64.5" y="336.5" font-size="12" text-anchor="middle" font-weight="700" fill="#ffffff" font-family="'Helvetica Neue',Helvetica,Arial,sans-serif">18</text>
<rect x="486.7" y="166.0" width="6" height="6" fill="#6b6157"/>
<text x="476.7" y="173.0" font-size="11" text-anchor="end" font-weight="400" fill="none" stroke="#faf7f2" stroke-width="3.4" stroke-linejoin="round" font-family="'Helvetica Neue',Helvetica,Arial,sans-serif">Napoli</text>
<text x="476.7" y="173.0" font-size="11" text-anchor="end" font-weight="400" fill="#6b6157" font-family="'Helvetica Neue',Helvetica,Arial,sans-serif">Napoli</text>
<rect x="682.1" y="139.1" width="6" height="6" fill="#6b6157"/>
<text x="685.1" y="129.1" font-size="11" text-anchor="middle" font-weight="400" fill="none" stroke="#faf7f2" stroke-width="3.4" stroke-linejoin="round" font-family="'Helvetica Neue',Helvetica,Arial,sans-serif">Bari</text>
<text x="685.1" y="129.1" font-size="11" text-anchor="middle" font-weight="400" fill="#6b6157" font-family="'Helvetica Neue',Helvetica,Arial,sans-serif">Bari</text>
<rect x="549.3" y="488.2" width="6" height="6" fill="#6b6157"/>
<text x="539.3" y="495.2" font-size="11" text-anchor="end" font-weight="400" fill="none" stroke="#faf7f2" stroke-width="3.4" stroke-linejoin="round" font-family="'Helvetica Neue',Helvetica,Arial,sans-serif">Catania</text>
<text x="539.3" y="495.2" font-size="11" text-anchor="end" font-weight="400" fill="#6b6157" font-family="'Helvetica Neue',Helvetica,Arial,sans-serif">Catania</text>
<rect x="420.3" y="428.6" width="6" height="6" fill="#6b6157"/>
<text x="423.3" y="418.6" font-size="11" text-anchor="middle" font-weight="400" fill="none" stroke="#faf7f2" stroke-width="3.4" stroke-linejoin="round" font-family="'Helvetica Neue',Helvetica,Arial,sans-serif">Palermo</text>
<text x="423.3" y="418.6" font-size="11" text-anchor="middle" font-weight="400" fill="#6b6157" font-family="'Helvetica Neue',Helvetica,Arial,sans-serif">Palermo</text>
<rect x="103.3" y="323.7" width="6" height="6" fill="#6b6157"/>
<text x="106.3" y="343.7" font-size="11" text-anchor="middle" font-weight="400" fill="none" stroke="#faf7f2" stroke-width="3.4" stroke-linejoin="round" font-family="'Helvetica Neue',Helvetica,Arial,sans-serif">Cagliari</text>
<text x="106.3" y="343.7" font-size="11" text-anchor="middle" font-weight="400" fill="#6b6157" font-family="'Helvetica Neue',Helvetica,Arial,sans-serif">Cagliari</text>
<rect x="14" y="619.0" width="832.0" height="192.0" fill="#ffffff" fill-opacity="0.92" stroke="#c4b8a3" rx="4"/>
<circle cx="32.0" cy="639.0" r="8" fill="#8c2f39"/>
<text x="32.0" y="643.0" font-size="10.5" text-anchor="middle" font-weight="700" fill="#fff" font-family="'Helvetica Neue',Helvetica,Arial,sans-serif">1</text>
<text x="47.0" y="643.0" font-size="11.5" text-anchor="start" font-weight="600" fill="#2f2a24" font-family="'Helvetica Neue',Helvetica,Arial,sans-serif">타우라시 Taurasi</text>
<text x="420.0" y="643.0" font-size="10.5" text-anchor="end" font-weight="400" fill="#6b6157" font-family="'Helvetica Neue',Helvetica,Arial,sans-serif">알리아니코 · 캄파니아 최고</text>
<circle cx="32.0" cy="658.5" r="8" fill="#b08a2e"/>
<text x="32.0" y="662.5" font-size="10.5" text-anchor="middle" font-weight="700" fill="#fff" font-family="'Helvetica Neue',Helvetica,Arial,sans-serif">2</text>
<text x="47.0" y="662.5" font-size="11.5" text-anchor="start" font-weight="600" fill="#2f2a24" font-family="'Helvetica Neue',Helvetica,Arial,sans-serif">피아노 디 아벨리노 Fiano di Avellino</text>
<text x="420.0" y="662.5" font-size="10.5" text-anchor="end" font-weight="400" fill="#6b6157" font-family="'Helvetica Neue',Helvetica,Arial,sans-serif">피아노</text>
<circle cx="32.0" cy="678.0" r="8" fill="#b08a2e"/>
<text x="32.0" y="682.0" font-size="10.5" text-anchor="middle" font-weight="700" fill="#fff" font-family="'Helvetica Neue',Helvetica,Arial,sans-serif">3</text>
<text x="47.0" y="682.0" font-size="11.5" text-anchor="start" font-weight="600" fill="#2f2a24" font-family="'Helvetica Neue',Helvetica,Arial,sans-serif">그레코 디 투포 Greco di Tufo</text>
<text x="420.0" y="682.0" font-size="10.5" text-anchor="end" font-weight="400" fill="#6b6157" font-family="'Helvetica Neue',Helvetica,Arial,sans-serif">그레코</text>
<circle cx="32.0" cy="697.5" r="8" fill="#b08a2e"/>
<text x="32.0" y="701.5" font-size="10.5" text-anchor="middle" font-weight="700" fill="#fff" font-family="'Helvetica Neue',Helvetica,Arial,sans-serif">4</text>
<text x="47.0" y="701.5" font-size="11.5" text-anchor="start" font-weight="600" fill="#2f2a24" font-family="'Helvetica Neue',Helvetica,Arial,sans-serif">산니오 Sannio Falanghina</text>
<text x="420.0" y="701.5" font-size="10.5" text-anchor="end" font-weight="400" fill="#6b6157" font-family="'Helvetica Neue',Helvetica,Arial,sans-serif">팔랑기나</text>
<circle cx="32.0" cy="717.0" r="8" fill="#b08a2e"/>
<text x="32.0" y="721.0" font-size="10.5" text-anchor="middle" font-weight="700" fill="#fff" font-family="'Helvetica Neue',Helvetica,Arial,sans-serif">5</text>
<text x="47.0" y="721.0" font-size="11.5" text-anchor="start" font-weight="600" fill="#2f2a24" font-family="'Helvetica Neue',Helvetica,Arial,sans-serif">코스타 다말피 Costa d'Amalfi</text>
<text x="420.0" y="721.0" font-size="10.5" text-anchor="end" font-weight="400" fill="#6b6157" font-family="'Helvetica Neue',Helvetica,Arial,sans-serif">절벽 계단밭</text>
<circle cx="32.0" cy="736.5" r="8" fill="#8c2f39"/>
<text x="32.0" y="740.5" font-size="10.5" text-anchor="middle" font-weight="700" fill="#fff" font-family="'Helvetica Neue',Helvetica,Arial,sans-serif">6</text>
<text x="47.0" y="740.5" font-size="11.5" text-anchor="start" font-weight="600" fill="#2f2a24" font-family="'Helvetica Neue',Helvetica,Arial,sans-serif">알리아니코 델 불투레 Aglianico del Vulture</text>
<text x="420.0" y="740.5" font-size="10.5" text-anchor="end" font-weight="400" fill="#6b6157" font-family="'Helvetica Neue',Helvetica,Arial,sans-serif">바실리카타 · 화산토</text>
<circle cx="32.0" cy="756.0" r="8" fill="#8c2f39"/>
<text x="32.0" y="760.0" font-size="10.5" text-anchor="middle" font-weight="700" fill="#fff" font-family="'Helvetica Neue',Helvetica,Arial,sans-serif">7</text>
<text x="47.0" y="760.0" font-size="11.5" text-anchor="start" font-weight="600" fill="#2f2a24" font-family="'Helvetica Neue',Helvetica,Arial,sans-serif">카스텔 델 몬테 Castel del Monte</text>
<text x="420.0" y="760.0" font-size="10.5" text-anchor="end" font-weight="400" fill="#6b6157" font-family="'Helvetica Neue',Helvetica,Arial,sans-serif">네로 디 트로이아</text>
<circle cx="32.0" cy="775.5" r="8" fill="#8c2f39"/>
<text x="32.0" y="779.5" font-size="10.5" text-anchor="middle" font-weight="700" fill="#fff" font-family="'Helvetica Neue',Helvetica,Arial,sans-serif">8</text>
<text x="47.0" y="779.5" font-size="11.5" text-anchor="start" font-weight="600" fill="#2f2a24" font-family="'Helvetica Neue',Helvetica,Arial,sans-serif">조이아 델 콜레 Gioia del Colle</text>
<text x="420.0" y="779.5" font-size="10.5" text-anchor="end" font-weight="400" fill="#6b6157" font-family="'Helvetica Neue',Helvetica,Arial,sans-serif">프리미티보</text>
<circle cx="32.0" cy="795.0" r="8" fill="#8c2f39"/>
<text x="32.0" y="799.0" font-size="10.5" text-anchor="middle" font-weight="700" fill="#fff" font-family="'Helvetica Neue',Helvetica,Arial,sans-serif">9</text>
<text x="47.0" y="799.0" font-size="11.5" text-anchor="start" font-weight="600" fill="#2f2a24" font-family="'Helvetica Neue',Helvetica,Arial,sans-serif">프리미티보 디 만두리아 Primitivo di Manduria</text>
<text x="420.0" y="799.0" font-size="10.5" text-anchor="end" font-weight="400" fill="#6b6157" font-family="'Helvetica Neue',Helvetica,Arial,sans-serif">프리미티보</text>
<circle cx="442.0" cy="639.0" r="8" fill="#8c2f39"/>
<text x="442.0" y="643.0" font-size="10.5" text-anchor="middle" font-weight="700" fill="#fff" font-family="'Helvetica Neue',Helvetica,Arial,sans-serif">10</text>
<text x="457.0" y="643.0" font-size="11.5" text-anchor="start" font-weight="600" fill="#2f2a24" font-family="'Helvetica Neue',Helvetica,Arial,sans-serif">살리체 살렌티노 Salice Salentino</text>
<text x="830.0" y="643.0" font-size="10.5" text-anchor="end" font-weight="400" fill="#6b6157" font-family="'Helvetica Neue',Helvetica,Arial,sans-serif">네그로아마로</text>
<circle cx="442.0" cy="658.5" r="8" fill="#8c2f39"/>
<text x="442.0" y="662.5" font-size="10.5" text-anchor="middle" font-weight="700" fill="#fff" font-family="'Helvetica Neue',Helvetica,Arial,sans-serif">11</text>
<text x="457.0" y="662.5" font-size="11.5" text-anchor="start" font-weight="600" fill="#2f2a24" font-family="'Helvetica Neue',Helvetica,Arial,sans-serif">치로 Cirò</text>
<text x="830.0" y="662.5" font-size="10.5" text-anchor="end" font-weight="400" fill="#6b6157" font-family="'Helvetica Neue',Helvetica,Arial,sans-serif">칼라브리아 · 갈리오포</text>
<circle cx="442.0" cy="678.0" r="8" fill="#8c2f39"/>
<text x="442.0" y="682.0" font-size="10.5" text-anchor="middle" font-weight="700" fill="#fff" font-family="'Helvetica Neue',Helvetica,Arial,sans-serif">12</text>
<text x="457.0" y="682.0" font-size="11.5" text-anchor="start" font-weight="600" fill="#2f2a24" font-family="'Helvetica Neue',Helvetica,Arial,sans-serif">에트나 Etna</text>
<text x="830.0" y="682.0" font-size="10.5" text-anchor="end" font-weight="400" fill="#6b6157" font-family="'Helvetica Neue',Helvetica,Arial,sans-serif">네렐로 마스칼레제 · 콘트라다</text>
<circle cx="442.0" cy="697.5" r="8" fill="#8c2f39"/>
<text x="442.0" y="701.5" font-size="10.5" text-anchor="middle" font-weight="700" fill="#fff" font-family="'Helvetica Neue',Helvetica,Arial,sans-serif">13</text>
<text x="457.0" y="701.5" font-size="11.5" text-anchor="start" font-weight="600" fill="#2f2a24" font-family="'Helvetica Neue',Helvetica,Arial,sans-serif">체라수올로 디 비토리아 Cerasuolo di Vittoria</text>
<text x="830.0" y="701.5" font-size="10.5" text-anchor="end" font-weight="400" fill="#6b6157" font-family="'Helvetica Neue',Helvetica,Arial,sans-serif">시칠리아 유일 DOCG</text>
<circle cx="442.0" cy="717.0" r="8" fill="#b08a2e"/>
<text x="442.0" y="721.0" font-size="10.5" text-anchor="middle" font-weight="700" fill="#fff" font-family="'Helvetica Neue',Helvetica,Arial,sans-serif">14</text>
<text x="457.0" y="721.0" font-size="11.5" text-anchor="start" font-weight="600" fill="#2f2a24" font-family="'Helvetica Neue',Helvetica,Arial,sans-serif">마르살라 Marsala</text>
<text x="830.0" y="721.0" font-size="10.5" text-anchor="end" font-weight="400" fill="#6b6157" font-family="'Helvetica Neue',Helvetica,Arial,sans-serif">주정강화</text>
<circle cx="442.0" cy="736.5" r="8" fill="#b08a2e"/>
<text x="442.0" y="740.5" font-size="10.5" text-anchor="middle" font-weight="700" fill="#fff" font-family="'Helvetica Neue',Helvetica,Arial,sans-serif">15</text>
<text x="457.0" y="740.5" font-size="11.5" text-anchor="start" font-weight="600" fill="#2f2a24" font-family="'Helvetica Neue',Helvetica,Arial,sans-serif">판텔레리아 Pantelleria</text>
<text x="830.0" y="740.5" font-size="10.5" text-anchor="end" font-weight="400" fill="#6b6157" font-family="'Helvetica Neue',Helvetica,Arial,sans-serif">지비보 파시토</text>
<circle cx="442.0" cy="756.0" r="8" fill="#b08a2e"/>
<text x="442.0" y="760.0" font-size="10.5" text-anchor="middle" font-weight="700" fill="#fff" font-family="'Helvetica Neue',Helvetica,Arial,sans-serif">16</text>
<text x="457.0" y="760.0" font-size="11.5" text-anchor="start" font-weight="600" fill="#2f2a24" font-family="'Helvetica Neue',Helvetica,Arial,sans-serif">베르멘티노 디 갈루라 Vermentino di Gallura</text>
<text x="830.0" y="760.0" font-size="10.5" text-anchor="end" font-weight="400" fill="#6b6157" font-family="'Helvetica Neue',Helvetica,Arial,sans-serif">사르데냐 유일 DOCG</text>
<circle cx="442.0" cy="775.5" r="8" fill="#8c2f39"/>
<text x="442.0" y="779.5" font-size="10.5" text-anchor="middle" font-weight="700" fill="#fff" font-family="'Helvetica Neue',Helvetica,Arial,sans-serif">17</text>
<text x="457.0" y="779.5" font-size="11.5" text-anchor="start" font-weight="600" fill="#2f2a24" font-family="'Helvetica Neue',Helvetica,Arial,sans-serif">칸노나우 디 사르데냐 Cannonau di Sardegna</text>
<text x="830.0" y="779.5" font-size="10.5" text-anchor="end" font-weight="400" fill="#6b6157" font-family="'Helvetica Neue',Helvetica,Arial,sans-serif">= 그르나슈</text>
<circle cx="442.0" cy="795.0" r="8" fill="#8c2f39"/>
<text x="442.0" y="799.0" font-size="10.5" text-anchor="middle" font-weight="700" fill="#fff" font-family="'Helvetica Neue',Helvetica,Arial,sans-serif">18</text>
<text x="457.0" y="799.0" font-size="11.5" text-anchor="start" font-weight="600" fill="#2f2a24" font-family="'Helvetica Neue',Helvetica,Arial,sans-serif">카리냐노 델 술치스 Carignano del Sulcis</text>
<text x="830.0" y="799.0" font-size="10.5" text-anchor="end" font-weight="400" fill="#6b6157" font-family="'Helvetica Neue',Helvetica,Arial,sans-serif">= 카리냥</text>
</svg>
